<svg width="666" height="35" viewBox="0 0 666 35" fill="none" xmlns="http://www.w3.org/2000/svg">
<path d="M16.784 32.368H1.856V4.336H16.544C17.12 4.336 17.408 3.952 17.408 3.52C17.408 3.088 17.12 2.704 16.544 2.704H1.184C0.512 2.704 0.224 2.992 0.224 3.664V33.04C0.224 33.712 0.512 34 1.184 34H16.784C17.36 34 17.648 33.616 17.648 33.184C17.648 32.752 17.36 32.368 16.784 32.368ZM14.384 17.008H5.552C4.928 17.008 4.592 17.296 4.592 17.872C4.592 18.448 4.928 18.736 5.552 18.736H14.384C15.008 18.736 15.344 18.448 15.344 17.872C15.344 17.296 15.008 17.008 14.384 17.008ZM49.1326 9.712C45.5326 9.712 42.4126 12.064 41.7886 14.944C41.1646 12.064 38.0446 9.712 34.4446 9.712C30.1246 9.712 26.2846 12.352 26.2846 18.016V33.04C26.2846 33.712 26.5726 34 27.1006 34C27.6286 34 27.9166 33.712 27.9166 33.04V18.4C27.9166 13.072 31.2766 11.296 34.4446 11.296C37.6126 11.296 40.9726 13.072 40.9726 18.4V33.04C40.9726 33.712 41.2606 34 41.7886 34C42.3166 34 42.6046 33.712 42.6046 33.04V18.4C42.6046 13.072 45.9646 11.296 49.1326 11.296C52.3006 11.296 55.6606 13.072 55.6606 18.4V33.04C55.6606 33.712 55.9486 34 56.4766 34C57.0046 34 57.2926 33.712 57.2926 33.04V18.016C57.2926 12.352 53.4526 9.712 49.1326 9.712ZM78.977 11.632C85.409 11.632 89.201 16.096 89.201 22C89.201 28 85.265 32.704 79.025 32.704C73.073 32.704 68.801 28.432 68.801 22.048V1.264C68.801 0.591998 68.513 0.303999 67.985 0.303999C67.457 0.303999 67.169 0.591998 67.169 1.264V22.576C67.169 29.152 71.681 34.288 78.881 34.288C86.321 34.288 90.881 28.768 90.881 21.904C90.881 15.184 86.513 10 78.977 10H77.201C76.673 10 76.385 10.288 76.385 10.816C76.385 11.344 76.673 11.632 77.201 11.632H78.977ZM111.906 10.768C111.138 10.384 109.794 9.712 107.922 9.712C102.69 9.712 101.634 13.744 101.346 15.184H101.154V10.912C101.106 10.288 100.866 10 100.338 10C99.8101 10 99.5221 10.288 99.5221 10.96V33.04C99.5221 33.712 99.8101 34 100.338 34C100.866 34 101.154 33.712 101.154 33.04V22C101.154 16.096 103.074 11.344 107.874 11.344C109.314 11.344 110.562 11.92 111.234 12.256C111.906 12.592 112.194 12.304 112.386 11.872C112.578 11.44 112.482 11.056 111.906 10.768ZM131.369 32.416C123.737 32.416 119.417 28.144 119.417 21.904C119.417 15.712 124.073 11.296 130.409 11.296C136.697 11.296 139.817 14.08 139.817 21.04V32.992C139.817 33.664 140.057 34 140.633 34C141.209 34 141.449 33.664 141.449 32.992V20.272C141.449 13.264 137.513 9.712 130.457 9.712C123.113 9.712 117.737 14.704 117.737 22C117.737 29.056 122.777 34 131.369 34C132.089 34 132.281 33.76 132.281 33.232C132.281 32.704 132.089 32.416 131.369 32.416ZM170.154 14.8C170.49 15.136 171.018 15.136 171.354 14.8C171.738 14.464 171.69 13.984 171.45 13.744C169.53 11.68 166.794 9.712 162.378 9.712C155.274 9.712 150.09 14.896 150.09 22C150.09 29.104 155.274 34.288 162.378 34.288C167.178 34.288 170.298 31.888 172.074 29.584C172.41 29.152 172.314 28.72 171.93 28.432C171.45 28.096 171.114 28.096 170.778 28.528C169.338 30.448 166.602 32.704 162.33 32.704C156.282 32.704 151.77 28.192 151.77 22C151.77 15.808 156.282 11.296 162.378 11.296C165.978 11.296 168.378 12.88 170.154 14.8ZM198.643 30.976C197.731 31.792 194.947 32.704 191.923 32.704C185.011 32.704 181.123 28.192 181.123 22C181.123 15.808 185.299 11.296 191.299 11.296C195.907 11.296 200.179 14.224 200.179 20.896H190.147C189.619 20.896 189.331 21.184 189.331 21.664C189.331 22.144 189.619 22.432 190.147 22.432H199.651C201.043 22.432 201.715 21.712 201.715 20.08C201.715 13.744 197.203 9.712 191.155 9.712C184.339 9.712 179.443 14.896 179.443 22C179.443 29.104 184.051 34.288 191.923 34.288C195.091 34.288 198.355 33.376 199.699 32.176C200.179 31.744 200.179 31.312 199.891 30.976C199.603 30.64 199.075 30.592 198.643 30.976ZM236.479 32.368H234.175C229.951 32.368 228.607 30.688 228.607 25.168V3.664C228.607 2.992 228.319 2.704 227.791 2.704C227.263 2.704 226.975 2.992 226.975 3.664V26.032C226.975 31.552 229.135 34 234.175 34H236.479C237.103 34 237.391 33.712 237.391 33.184C237.391 32.656 237.103 32.368 236.479 32.368ZM232.303 11.632H236.431C237.007 11.632 237.247 11.344 237.247 10.816C237.247 10.288 237.007 10 236.431 10H232.303C231.727 10 231.487 10.288 231.487 10.816C231.487 11.344 231.727 11.632 232.303 11.632ZM256.713 9.712C252.009 9.712 249.321 12.016 248.121 14.512H247.929V1.264C247.929 0.591998 247.641 0.303999 247.113 0.303999C246.585 0.303999 246.297 0.591998 246.297 1.264V33.04C246.297 33.712 246.585 34 247.113 34C247.641 34 247.929 33.712 247.929 33.04V18.736C247.929 15.28 250.761 11.296 256.761 11.296C261.993 11.296 264.681 14.08 264.681 19.312V33.04C264.681 33.712 264.969 34 265.497 34C266.025 34 266.313 33.712 266.313 33.04V18.592C266.313 12.928 262.569 9.712 256.713 9.712ZM294.165 30.976C293.253 31.792 290.469 32.704 287.445 32.704C280.533 32.704 276.645 28.192 276.645 22C276.645 15.808 280.821 11.296 286.821 11.296C291.429 11.296 295.701 14.224 295.701 20.896H285.669C285.141 20.896 284.853 21.184 284.853 21.664C284.853 22.144 285.141 22.432 285.669 22.432H295.173C296.565 22.432 297.237 21.712 297.237 20.08C297.237 13.744 292.725 9.712 286.677 9.712C279.861 9.712 274.965 14.896 274.965 22C274.965 29.104 279.573 34.288 287.445 34.288C290.613 34.288 293.877 33.376 295.221 32.176C295.701 31.744 295.701 31.312 295.413 30.976C295.125 30.64 294.597 30.592 294.165 30.976ZM341.841 34C342.369 34 342.657 33.712 342.657 33.04V19.264C342.657 13.6 338.337 9.712 332.577 9.712C326.817 9.712 322.497 13.6 322.497 19.264V33.04C322.497 33.712 322.785 34 323.313 34C323.841 34 324.129 33.712 324.129 33.04V19.648C324.129 14.32 327.969 11.296 332.577 11.296C337.185 11.296 341.025 14.32 341.025 19.648V33.04C341.025 33.712 341.313 34 341.841 34ZM370.505 30.976C369.593 31.792 366.809 32.704 363.785 32.704C356.873 32.704 352.985 28.192 352.985 22C352.985 15.808 357.161 11.296 363.161 11.296C367.769 11.296 372.041 14.224 372.041 20.896H362.009C361.481 20.896 361.193 21.184 361.193 21.664C361.193 22.144 361.481 22.432 362.009 22.432H371.513C372.905 22.432 373.577 21.712 373.577 20.08C373.577 13.744 369.065 9.712 363.017 9.712C356.201 9.712 351.305 14.896 351.305 22C351.305 29.104 355.913 34.288 363.785 34.288C366.953 34.288 370.217 33.376 371.561 32.176C372.041 31.744 372.041 31.312 371.753 30.976C371.465 30.64 370.937 30.592 370.505 30.976ZM405.083 34C409.403 34 413.243 31.36 413.243 25.696V10.96C413.243 10.288 412.955 10 412.427 10C411.899 10 411.611 10.288 411.611 10.96V25.312C411.611 30.64 408.251 32.416 405.083 32.416C401.915 32.416 398.555 30.64 398.555 25.312V10.96C398.555 10.288 398.267 10 397.739 10C397.211 10 396.923 10.288 396.923 10.96V25.312C396.923 30.64 393.563 32.416 390.395 32.416C387.227 32.416 383.867 30.64 383.867 25.312V10.96C383.867 10.288 383.579 10 383.051 10C382.523 10 382.235 10.288 382.235 10.96V25.696C382.235 31.36 386.075 34 390.395 34C393.995 34 397.115 31.648 397.739 28.768C398.363 31.648 401.483 34 405.083 34ZM457.674 30.976C456.762 31.792 453.978 32.704 450.954 32.704C444.042 32.704 440.154 28.192 440.154 22C440.154 15.808 444.33 11.296 450.33 11.296C454.938 11.296 459.21 14.224 459.21 20.896H449.178C448.65 20.896 448.362 21.184 448.362 21.664C448.362 22.144 448.65 22.432 449.178 22.432H458.682C460.074 22.432 460.746 21.712 460.746 20.08C460.746 13.744 456.234 9.712 450.186 9.712C443.37 9.712 438.474 14.896 438.474 22C438.474 29.104 443.082 34.288 450.954 34.288C454.122 34.288 457.386 33.376 458.73 32.176C459.21 31.744 459.21 31.312 458.922 30.976C458.634 30.64 458.106 30.592 457.674 30.976ZM489.659 32.32C484.427 30.688 480.155 26.032 480.155 22C480.155 18.016 484.427 13.264 489.659 11.632C490.331 11.44 490.427 11.056 490.283 10.576C490.139 10.048 489.851 9.856 489.227 10.048C484.955 11.344 480.635 15.472 479.339 18.64C478.043 15.472 473.963 11.056 469.403 10C468.779 9.856 468.539 10.096 468.395 10.576C468.251 11.056 468.347 11.344 469.019 11.584C474.299 13.264 478.475 18.016 478.475 22C478.475 25.984 474.299 30.688 469.019 32.368C468.347 32.608 468.251 32.896 468.395 33.376C468.539 33.856 468.779 34.096 469.403 33.952C473.867 32.608 478.043 28.528 479.339 25.36C480.635 28.528 484.955 32.608 489.227 33.904C489.851 34.096 490.139 33.904 490.283 33.376C490.427 32.896 490.331 32.56 489.659 32.32ZM500.522 4.048C501.338 4.048 501.866 3.52 501.866 2.704C501.866 1.888 501.338 1.36 500.522 1.36C499.706 1.36 499.178 1.888 499.178 2.704C499.178 3.52 499.706 4.048 500.522 4.048ZM500.522 10C499.994 10 499.706 10.288 499.706 10.96V33.04C499.706 33.712 499.994 34 500.522 34C501.05 34 501.338 33.712 501.338 33.04V10.96C501.338 10.288 501.05 10 500.522 10ZM513.286 15.856C513.286 13.12 515.494 11.296 519.19 11.296C521.782 11.296 523.558 12.16 525.238 13.696C525.67 14.08 526.102 14.08 526.534 13.648C526.918 13.264 526.774 12.88 526.39 12.448C525.094 11.008 522.358 9.712 519.094 9.712C514.582 9.712 511.606 12.208 511.606 15.904C511.606 18.304 512.95 20.512 518.278 21.904C524.23 23.44 526.246 24.496 526.246 27.376C526.246 30.784 523.318 32.704 519.574 32.704C515.83 32.704 513.286 30.736 512.086 29.344C511.798 29.008 511.366 28.96 510.934 29.296C510.55 29.632 510.502 30.064 510.886 30.544C512.278 32.272 515.446 34.288 519.574 34.288C524.278 34.288 527.926 31.648 527.926 27.376C527.926 22.912 524.038 21.856 520.246 20.8C513.91 19.024 513.286 17.68 513.286 15.856ZM546.154 32.368H543.85C539.626 32.368 538.282 30.688 538.282 25.168V3.664C538.282 2.992 537.994 2.704 537.466 2.704C536.938 2.704 536.65 2.992 536.65 3.664V26.032C536.65 31.552 538.81 34 543.85 34H546.154C546.778 34 547.066 33.712 547.066 33.184C547.066 32.656 546.778 32.368 546.154 32.368ZM541.978 11.632H546.106C546.682 11.632 546.922 11.344 546.922 10.816C546.922 10.288 546.682 10 546.106 10H541.978C541.402 10 541.162 10.288 541.162 10.816C541.162 11.344 541.402 11.632 541.978 11.632ZM572.987 30.976C572.075 31.792 569.291 32.704 566.267 32.704C559.355 32.704 555.467 28.192 555.467 22C555.467 15.808 559.643 11.296 565.643 11.296C570.251 11.296 574.523 14.224 574.523 20.896H564.491C563.963 20.896 563.675 21.184 563.675 21.664C563.675 22.144 563.963 22.432 564.491 22.432H573.995C575.387 22.432 576.059 21.712 576.059 20.08C576.059 13.744 571.547 9.712 565.499 9.712C558.683 9.712 553.787 14.896 553.787 22C553.787 29.104 558.395 34.288 566.267 34.288C569.435 34.288 572.699 33.376 574.043 32.176C574.523 31.744 574.523 31.312 574.235 30.976C573.947 30.64 573.419 30.592 572.987 30.976ZM604.06 34C604.588 34 604.876 33.712 604.876 33.04V19.264C604.876 13.6 600.556 9.712 594.796 9.712C589.036 9.712 584.716 13.6 584.716 19.264V33.04C584.716 33.712 585.004 34 585.532 34C586.06 34 586.348 33.712 586.348 33.04V19.648C586.348 14.32 590.188 11.296 594.796 11.296C599.404 11.296 603.244 14.32 603.244 19.648V33.04C603.244 33.712 603.532 34 604.06 34ZM633.588 14.8C633.924 15.136 634.452 15.136 634.788 14.8C635.172 14.464 635.124 13.984 634.884 13.744C632.964 11.68 630.228 9.712 625.812 9.712C618.708 9.712 613.524 14.896 613.524 22C613.524 29.104 618.708 34.288 625.812 34.288C630.612 34.288 633.732 31.888 635.508 29.584C635.844 29.152 635.748 28.72 635.364 28.432C634.884 28.096 634.548 28.096 634.212 28.528C632.772 30.448 630.036 32.704 625.764 32.704C619.716 32.704 615.204 28.192 615.204 22C615.204 15.808 619.716 11.296 625.812 11.296C629.412 11.296 631.812 12.88 633.588 14.8ZM662.077 30.976C661.165 31.792 658.381 32.704 655.357 32.704C648.445 32.704 644.557 28.192 644.557 22C644.557 15.808 648.733 11.296 654.733 11.296C659.341 11.296 663.613 14.224 663.613 20.896H653.581C653.053 20.896 652.765 21.184 652.765 21.664C652.765 22.144 653.053 22.432 653.581 22.432H663.085C664.477 22.432 665.149 21.712 665.149 20.08C665.149 13.744 660.637 9.712 654.589 9.712C647.773 9.712 642.877 14.896 642.877 22C642.877 29.104 647.485 34.288 655.357 34.288C658.525 34.288 661.789 33.376 663.133 32.176C663.613 31.744 663.613 31.312 663.325 30.976C663.037 30.64 662.509 30.592 662.077 30.976Z" fill="white"/>
</svg>
